# xmcd
#
# Track frame offsets: 
#        150
#        15145
#        33949
#        53280
#        72761
#        83302
#        93305
#        101784
#        118333
#        129584
#        140739
#        153389
#        164969
#        176452
#        189960
#        201371
#        213581
#        226332
#        241938
#        254731
#        269554
#        297618
#        313494
#        329361
#
# Disc length: 4721 seconds
#
# Revision: 0
# Processed by: cddbd v1.5.2PL0 Copyright (c) Steve Scherf et al.
# Submitted via: ExactAudioCopyFreeDBPlugin 1.0
#
DISCID=64126f18
DTITLE=Various Artist - Johan Derksen Presenteert: Pioniers van de Ne
DTITLE=derpop
DYEAR=2014
DGENRE=Nederpop
TTITLE0=Major Dundee - Leaving Home
TTITLE1=Dick Van Altena - Me and Bobby Mcgee
TTITLE2=Major Dundee - Lean On The Wind
TTITLE3=Major Dundee and Pussycat - Somewhere Someone
TTITLE4=Major Dundee - Everybody's Talking 'Bout Garth Brooks
TTITLE5=Johnny Kendall and The Heralds - See See Rider
TTITLE6=Johnny Kendall and The Heralds - Little Girl
TTITLE7=Johnny Kendall and The Heralds - Saint James Infirmary
TTITLE8=Johnny Kendall and The Heralds - Jezebel
TTITLE9=Johnny Kendall and The Heralds - Hoochie Coochie Man
TTITLE10=Les Baroques - Silky
TTITLE11=Les Baroques - Such A Cad
TTITLE12=Les Baroques - I Know
TTITLE13=Les Baroques - She's Mine
TTITLE14=Les Baroques - I'll Send You To The Moon
TTITLE15=The Buffoons - Tomorrow Is Another Day
TTITLE16=The Buffoons - It's The End
TTITLE17=The Buffoons - Maria
TTITLE18=The Buffoons - My Girl Donna
TTITLE19=The Buffoons - Let It Be Me
TTITLE20=King Of The World - If You Want To Leave
TTITLE21=King Of The World - Hurricane
TTITLE22=King Of The World - Messing With My Mind
TTITLE23=King Of The World - Let's Go Get Stoned
EXTD=
EXTT0=
EXTT1=
EXTT2=
EXTT3=
EXTT4=
EXTT5=
EXTT6=
EXTT7=
EXTT8=
EXTT9=
EXTT10=
EXTT11=
EXTT12=
EXTT13=
EXTT14=
EXTT15=
EXTT16=
EXTT17=
EXTT18=
EXTT19=
EXTT20=
EXTT21=
EXTT22=
EXTT23=
PLAYORDER=
